<?xml version="1.0" encoding="UTF-8" standalone="no"?>
<!DOCTYPE svg PUBLIC "-//W3C//DTD SVG 1.1//EN" "http://www.w3.org/Graphics/SVG/1.1/DTD/svg11.dtd">
<svg width="100%" height="100%" viewBox="0 0 1054 282" version="1.1" xmlns="http://www.w3.org/2000/svg" xmlns:xlink="http://www.w3.org/1999/xlink" xml:space="preserve" xmlns:serif="http://www.serif.com/" style="fill-rule:evenodd;clip-rule:evenodd;stroke-linejoin:round;stroke-miterlimit:2;">
    <g transform="matrix(5.55556,0,0,5.55556,-906.161,-3747.19)">
        <rect x="163.109" y="674.495" width="86.931" height="50.582" style="fill:rgb(204,213,217);"/>
    </g>
    <g transform="matrix(5.55556,0,0,5.55556,-906.161,-3799.68)">
        <path d="M178.894,718.381C177.773,717.599 176.366,716.535 175.323,715.524C173.827,714.167 172.604,712.512 171.749,710.688C172.414,712.596 173.478,714.44 175.048,715.939C176.261,716.93 177.561,717.733 178.894,718.381ZM193.348,694.708C192.175,692.928 189.925,691.878 187.764,691.192C181.346,688.662 172.198,693.487 170.842,701.806C170.755,702.193 170.611,703.08 170.646,703.743C171.227,698.655 174.311,694.19 178.501,692.289C182.631,690.305 187.509,690.655 190.851,693.006C191.023,693.14 191.196,693.286 191.359,693.429C190.775,693.128 190.158,692.873 189.521,692.668C187.26,691.579 184.571,691.147 181.897,691.721C176.635,692.545 171.864,697.337 171.04,703.314C170.974,703.7 170.929,704.094 170.901,704.49C170.743,704.376 170.646,704.094 170.646,703.743C170.558,704.151 170.558,704.558 170.577,704.971C170.52,706.883 170.951,708.852 171.749,710.688C171.44,709.74 171.246,708.782 171.14,707.826C171.52,709.689 172.304,711.479 173.497,712.92C174.281,713.726 175.159,715.497 176.221,716.066C180.259,719.269 186.387,720.357 190.522,718C191.089,717.848 191.653,717.685 192.163,717.389C191.502,717.608 190.76,717.754 190.167,717.963L189.969,717.965C189.798,718.062 189.713,718.108 189.626,718.156C186.573,718.541 180.32,719.219 176.466,715.97C175.372,715.185 174.525,714.152 173.731,713.093C174.137,713.37 174.79,713.745 175.184,714.16C177.126,716.099 179.793,717.852 182.389,718.062C181.192,717.573 180.163,716.992 179.03,716.306C178.444,716.036 177.504,715.88 177.079,715.383C174.652,713.313 172.579,711.191 172.206,708.005C172.149,707.692 172.351,707.445 172.25,707.16C172.862,710.688 175.072,713.297 177.848,715.378C178.225,715.82 178.65,716.002 179.03,716.306C179.516,716.48 179.946,716.648 180.303,716.836C184.426,718.377 185.161,716.686 188.858,716.633C187.191,717.056 184.341,717.835 182.898,717.929C185.492,718.463 190.386,717.143 192.622,715.479C195.401,713.583 194.843,713.497 196.279,711.072C196.404,710.874 196.526,710.422 196.629,709.875C197.501,708.196 198.001,706.29 198.001,704.267C198.001,700.386 196.179,696.935 193.348,694.708ZM173.011,706.873C172.767,705.299 172.695,703.692 173.034,702.094C173.002,702.409 172.976,702.662 172.991,702.783C172.837,704.71 172.985,706.284 173.162,707.307C173.118,707.17 173.068,707.03 173.011,706.873C173.079,707.176 173.16,707.478 173.253,707.771C173.407,708.492 173.549,708.779 173.508,708.513C174.741,711.743 177.341,714.236 180.225,715.413C177.407,715.063 173.675,711.219 173.011,706.873ZM181.227,692.999C178.871,693.491 176.566,694.792 174.873,697.099C176.008,695.662 177.361,694.889 178.681,694.425C178.562,694.512 178.446,694.599 178.331,694.689C177.301,695.3 176.334,696.034 175.468,696.953C175.235,697.253 175.128,697.617 174.91,697.882L174.448,698.578C173.836,699.157 173.47,699.85 173.072,700.584C171.343,704.398 171.551,709.146 173.924,713.138C169.634,707.199 171.326,698.712 176.403,694.954C178.515,693.288 180.963,692.474 183.367,692.341C182.627,692.494 181.912,692.719 181.227,692.999ZM189.019,716.499C188.62,716.57 189.237,716.397 191.033,715.336C191.189,715.246 191.358,715.138 191.535,715.022C192.235,714.651 192.897,714.21 193.51,713.71C191.741,715.421 189.569,716.508 189.019,716.499" style="fill:rgb(252,124,0);fill-rule:nonzero;"/>
    </g>
    <g transform="matrix(5.55556,0,0,5.55556,-906.161,-3799.7)">
        <path d="M208.699,707.04C208.699,710.996 211.236,711.94 215.172,711.94L221.76,711.94L221.76,717.831L214.14,717.831C206.353,717.831 201.896,715.101 201.896,704.797C201.896,695.88 203.354,691.192 213.483,691.192C221.522,691.192 223.474,694.476 223.474,701.589L223.474,707.092L208.699,707.04ZM217.096,701.617C217.096,699.01 217.108,696.458 213.107,696.458C209.157,696.458 208.652,698.903 208.652,701.617L217.096,701.617" style="fill:rgb(35,31,32);fill-rule:nonzero;"/>
    </g>
    <g transform="matrix(5.55556,0,0,5.55556,-906.161,-3799.7)">
        <path d="M272.874,691.192L250.04,691.192L250.04,717.831L255.749,717.831L255.749,696.9L259.775,696.9L259.775,696.902C261.145,696.902 262.262,697.944 262.409,699.277L262.409,717.831L268.118,717.831L268.118,696.9L272.114,696.9L272.114,696.902C273.581,696.902 274.776,698.096 274.776,699.564L274.776,717.831L280.484,717.831L280.484,698.802C280.484,694.602 277.078,691.192 272.874,691.192" style="fill:rgb(35,31,32);fill-rule:nonzero;"/>
    </g>
    <g transform="matrix(5.55556,0,0,5.55556,-906.161,-3799.7)">
        <path d="M235.581,696.902L235.581,696.9L246.237,696.9L246.237,691.192L234.588,691.192L234.584,691.206C230.831,691.319 227.77,694.145 227.284,697.792L227.207,697.792L227.207,710.16L227.284,710.16L227.207,710.221C227.207,714.34 230.49,717.693 234.584,717.818L234.588,717.831L246.237,717.831L246.237,712.121L235.581,712.121C234.111,712.121 232.917,710.926 232.917,709.457L232.917,699.564C232.917,698.096 234.111,696.902 235.581,696.902" style="fill:rgb(35,31,32);fill-rule:nonzero;"/>
    </g>
    <g transform="matrix(5.55556,0,0,5.55556,-906.161,-3799.36)">
        <path d="M303.318,698.741C303.318,694.541 299.91,691.131 295.706,691.131L284.29,691.131L284.29,696.839L294.946,696.839L294.946,696.841C296.736,696.841 297.61,698.035 297.61,699.503C297.61,699.503 297.61,699.906 296.77,700.568C295.68,701.421 291.165,702.653 288.703,703.637L288.703,703.624C284.863,704.909 283.1,707.306 283.1,711.064C283.1,715.945 285.25,717.831 289.475,717.831L303.318,717.831C303.195,714.965 303.318,698.741 303.318,698.741ZM297.61,712.202L289.473,712.202C288.961,712.202 288.663,712.202 288.623,711.838C288.236,708.348 290.355,708.48 297.61,705.981L297.61,712.202" style="fill:rgb(35,31,32);fill-rule:nonzero;"/>
    </g>
    <g transform="matrix(5.55556,0,0,5.55556,-906.161,-3513.63)">
        <rect x="255.832" y="674.495" width="1.714" height="8.541" style="fill:rgb(204,213,217);"/>
    </g>
    <g transform="matrix(5.55556,0,0,5.55556,-906.161,-3513.63)">
        <path d="M259.662,674.495L261.767,674.495L265.022,680.882L265.046,680.882L265.046,674.495L266.686,674.495L266.686,683.036L264.594,683.036L261.326,676.649L261.302,676.649L261.302,683.036L259.662,683.036L259.662,674.495" style="fill:rgb(204,213,217);fill-rule:nonzero;"/>
    </g>
    <g transform="matrix(5.55556,0,0,5.55556,-906.161,-3513.63)">
        <path d="M270.503,675.841L268.056,675.841L268.056,674.495L274.663,674.495L274.663,675.841L272.216,675.841L272.216,683.036L270.503,683.036L270.503,675.841" style="fill:rgb(204,213,217);fill-rule:nonzero;"/>
    </g>
    <g transform="matrix(5.55556,0,0,5.55556,-906.161,-3513.63)">
        <path d="M276.12,674.495L281.16,674.495L281.16,675.841L277.832,675.841L277.832,677.946L280.879,677.946L280.879,679.291L277.832,679.291L277.832,681.69L281.185,681.69L281.185,683.036L276.12,683.036L276.12,674.495" style="fill:rgb(204,213,217);fill-rule:nonzero;"/>
    </g>
    <g transform="matrix(5.55556,0,0,5.55556,-906.161,-3513.97)">
        <path d="M283.143,674.556L284.99,674.556C286.826,674.556 289.016,674.495 289.016,676.868C289.016,677.872 288.343,678.704 287.254,678.851L287.254,678.875C287.719,678.912 287.988,679.377 288.159,679.757L289.529,683.097L287.621,683.097L286.593,680.429C286.348,679.793 286.128,679.549 285.406,679.549L284.855,679.549L284.855,683.097L283.143,683.097L283.143,674.556ZM284.855,678.202L285.419,678.202C286.262,678.202 287.229,678.08 287.229,677.015C287.229,675.987 286.275,675.902 285.419,675.902L284.855,675.902L284.855,678.202" style="fill:rgb(204,213,217);fill-rule:nonzero;"/>
    </g>
    <g transform="matrix(5.55556,0,0,5.55556,-906.161,-3513.63)">
        <path d="M291.047,674.495L293.152,674.495L296.406,680.882L296.431,680.882L296.431,674.495L298.07,674.495L298.07,683.036L295.978,683.036L292.711,676.649L292.687,676.649L292.687,683.036L291.047,683.036L291.047,674.495" style="fill:rgb(204,213,217);fill-rule:nonzero;"/>
    </g>
    <g transform="matrix(5.55556,0,0,5.55556,-906.161,-3513.63)">
        <path d="M302.781,674.495L304.714,674.495L308.067,683.036L306.171,683.036L305.436,681.078L301.974,681.078L301.227,683.036L299.453,683.036L302.781,674.495ZM303.723,676.208L303.699,676.208L302.462,679.732L304.959,679.732L303.723,676.208" style="fill:rgb(204,213,217);fill-rule:nonzero;"/>
    </g>
    <g transform="matrix(5.55556,0,0,5.55556,-906.161,-3513.63)">
        <path d="M310.112,675.841L307.665,675.841L307.665,674.495L314.272,674.495L314.272,675.841L311.826,675.841L311.826,683.036L310.112,683.036L310.112,675.841" style="fill:rgb(204,213,217);fill-rule:nonzero;"/>
    </g>
    <g transform="matrix(5.55556,0,0,5.55556,-906.161,-3513.63)">
        <rect x="315.582" y="674.495" width="1.713" height="8.541" style="fill:rgb(204,213,217);"/>
    </g>
    <g transform="matrix(5.55556,0,0,5.55556,-906.161,-3513.64)">
        <path d="M323.266,674.349C325.946,674.349 327.45,676.16 327.45,678.742C327.45,681.324 325.97,683.183 323.266,683.183C320.525,683.183 319.081,681.361 319.081,678.742C319.081,676.123 320.549,674.349 323.266,674.349ZM323.266,681.838C325.016,681.838 325.664,680.284 325.664,678.742C325.664,677.237 324.967,675.695 323.266,675.695C321.565,675.695 320.867,677.237 320.867,678.742C320.867,680.284 321.516,681.838 323.266,681.838" style="fill:rgb(204,213,217);fill-rule:nonzero;"/>
    </g>
    <g transform="matrix(5.55556,0,0,5.55556,-906.161,-3513.63)">
        <path d="M329.298,674.495L331.402,674.495L334.658,680.882L334.682,680.882L334.682,674.495L336.321,674.495L336.321,683.036L334.229,683.036L330.962,676.649L330.938,676.649L330.938,683.036L329.298,683.036L329.298,674.495" style="fill:rgb(204,213,217);fill-rule:nonzero;"/>
    </g>
    <g transform="matrix(5.55556,0,0,5.55556,-906.161,-3513.63)">
        <path d="M341.032,674.495L342.965,674.495L346.318,683.036L344.422,683.036L343.687,681.078L340.225,681.078L339.478,683.036L337.705,683.036L341.032,674.495ZM341.974,676.208L341.951,676.208L340.714,679.732L343.21,679.732L341.974,676.208" style="fill:rgb(204,213,217);fill-rule:nonzero;"/>
    </g>
    <g transform="matrix(5.55556,0,0,5.55556,-906.161,-3513.63)">
        <path d="M347.787,674.495L349.499,674.495L349.499,681.69L352.815,681.69L352.815,683.036L347.787,683.036L347.787,674.495" style="fill:rgb(204,213,217);fill-rule:nonzero;"/>
    </g>
</svg>
